# xmcd
#
# Track frame offsets: 
#        150
#        1247
#        18105
#        28300
#        46525
#        64962
#        87652
#        103117
#        116047
#        126785
#        141895
#        154534
#        166240
#        182102
#
# Disc length: 2635 seconds
#
# Revision: 1
# Processed by: cddbd v1.5.1PL2 Copyright (c) Steve Scherf et al.
# Submitted via: ExactAudioCopy v0.95a5
#
DISCID=b30a490e
DTITLE=Townes Van Zandt - Be Here to Love Me [1]
DYEAR=2005
DGENRE=Alt Country
TTITLE0=I've Designed it That Way
TTITLE1=At My Window
TTITLE2=Highway Kind
TTITLE3=Rake
TTITLE4=Pancho and Lefty
TTITLE5=My Proud Mountains
TTITLE6=Nothin'
TTITLE7=Dollar Bill Blues
TTITLE8=Waitin' Round to Die
TTITLE9=If I Needed You
TTITLE10=Where I Lead Me
TTITLE11=Be Here to Love Me
TTITLE12=No Place to Fall
TTITLE13=My Starter Won't Start
EXTD=
EXTT0=
EXTT1=
EXTT2=
EXTT3=
EXTT4=
EXTT5=
EXTT6=
EXTT7=
EXTT8=
EXTT9=
EXTT10=
EXTT11=
EXTT12=
EXTT13=
PLAYORDER=
